<svg width="64" height="64" viewBox="0 0 64 64" fill="none" xmlns="http://www.w3.org/2000/svg">
<path d="M47.4044 33.6114C47.0046 32.8683 46.3758 32.2585 45.518 31.7818C45.4417 31.725 45.4417 31.6673 45.518 31.6122C46.9662 30.7928 47.6902 29.4775 47.6902 27.6663C47.6902 25.6273 47.0759 24.174 45.8471 23.3066C44.6184 22.4392 42.784 22.0052 40.344 22.0046H32.9647C32.9073 22.0013 32.8498 22.0096 32.7957 22.0291C32.7416 22.0487 32.692 22.079 32.65 22.1183C32.6115 22.1606 32.5819 22.2104 32.5631 22.2644C32.5443 22.3185 32.5367 22.3759 32.5406 22.433V41.5878C32.5355 41.645 32.543 41.7027 32.5624 41.7568C32.5818 41.8108 32.6128 41.86 32.6531 41.9009C32.6935 41.9419 32.7423 41.9735 32.7961 41.9937C32.8499 42.0139 32.9074 42.0221 32.9647 42.0178H40.5985C42.7896 42.0178 44.5709 41.5555 45.9421 40.631C47.3134 39.7065 47.9995 38.2626 48.0007 36.2993C48.0007 35.252 47.8005 34.3563 47.4002 33.6122" fill="#0E0E24" style="fill:#0E0E24;fill:color(display-p3 0.0549 0.0549 0.1412);fill-opacity:1;"/>
<path d="M28.6941 32.0087V28.3869C28.6941 28.1587 28.7857 27.9509 29.0953 27.878L31.1683 27.5022C31.332 27.4649 31.4668 27.4335 31.4668 27.1214V22.402C31.4668 22.2956 31.4246 22.1934 31.3494 22.1181C31.2742 22.0427 31.1721 22.0002 31.0657 22H23.6439C22.1455 22.0107 20.8226 22.309 19.6752 22.8948C18.5447 23.4574 17.6018 24.336 16.961 25.4242C16.3203 26.5144 16 27.7762 16 29.2097V34.8078C16 36.2429 16.3215 37.5053 16.9644 38.5949C17.6054 39.6829 18.5482 40.5615 19.6786 41.1243C20.8226 41.7107 22.1443 42.0084 23.6439 42.0174H31.0657C31.1721 42.0172 31.2742 41.9747 31.3494 41.8994C31.4246 41.824 31.4668 41.7219 31.4668 41.6154V36.8926C31.4668 36.5805 31.332 36.5491 31.1683 36.5118L29.0953 36.136C28.7857 36.0656 28.6941 35.8578 28.6941 35.6271V32.0087Z" fill="#0E0E24" style="fill:#0E0E24;fill:color(display-p3 0.0549 0.0549 0.1412);fill-opacity:1;"/>
</svg>
