<svg width="64" height="64" viewBox="0 0 64 64" fill="none" xmlns="http://www.w3.org/2000/svg">
<g clip-path="url(#clip0_698_1035)">
<path d="M14 32C14 28.736 14.804 25.724 16.412 22.964C18.02 20.204 20.204 18.02 22.964 16.412C25.724 14.804 28.736 14 32 14C35.264 14 38.276 14.804 41.036 16.412C43.796 18.02 45.98 20.204 47.588 22.964C49.196 25.724 50 28.736 50 32C50 35.264 49.196 38.276 47.588 41.036C45.98 43.796 43.796 45.98 41.036 47.588C38.276 49.196 35.264 50 32 50C28.736 50 25.724 49.196 22.964 47.588C20.204 45.98 18.02 43.796 16.412 41.036C14.804 38.276 14 35.264 14 32ZM16.988 32C16.988 35.744 18.248 39.044 20.768 41.9C21.92 39.644 23.744 37.496 26.24 35.456C28.736 33.416 31.172 32.132 33.548 31.604C33.188 30.764 32.84 30.008 32.504 29.336C28.376 30.656 23.912 31.316 19.112 31.316C18.176 31.316 17.48 31.304 17.024 31.28C17.024 31.376 17.018 31.496 17.006 31.64C16.994 31.784 16.988 31.904 16.988 32ZM17.456 28.292C17.984 28.34 18.764 28.364 19.796 28.364C23.804 28.364 27.608 27.824 31.208 26.744C29.384 23.504 27.38 20.804 25.196 18.644C23.3 19.604 21.674 20.936 20.318 22.64C18.962 24.344 18.008 26.228 17.456 28.292ZM22.82 43.844C25.532 45.956 28.592 47.012 32 47.012C33.776 47.012 35.54 46.676 37.292 46.004C36.812 41.9 35.876 37.928 34.484 34.088C32.276 34.568 30.05 35.78 27.806 37.724C25.562 39.668 23.9 41.708 22.82 43.844ZM28.328 17.492C30.44 19.676 32.396 22.4 34.196 25.664C37.46 24.296 39.92 22.556 41.576 20.444C38.792 18.14 35.6 16.988 32 16.988C30.776 16.988 29.552 17.156 28.328 17.492ZM35.492 28.22C35.852 28.988 36.26 29.96 36.716 31.136C38.492 30.968 40.424 30.884 42.512 30.884C44 30.884 45.476 30.92 46.94 30.992C46.748 27.728 45.572 24.824 43.412 22.28C41.852 24.608 39.212 26.588 35.492 28.22ZM37.616 33.656C38.84 37.208 39.668 40.856 40.1 44.6C41.996 43.376 43.544 41.804 44.744 39.884C45.944 37.964 46.664 35.888 46.904 33.656C45.152 33.536 43.556 33.476 42.116 33.476C40.796 33.476 39.296 33.536 37.616 33.656Z" fill="#D723A4" style="fill:#D723A4;fill:color(display-p3 0.8412 0.1370 0.6440);fill-opacity:1;"/>
</g>
<defs>
<clipPath id="clip0_698_1035">
<rect width="36" height="36" fill="white" style="fill:white;fill-opacity:1;" transform="translate(14 14)"/>
</clipPath>
</defs>
</svg>
