<svg width="64" height="64" viewBox="0 0 64 64" fill="none" xmlns="http://www.w3.org/2000/svg">
<g clip-path="url(#clip0_698_1037)">
<path d="M17.174 25.6133C17.0773 25.6133 17 25.6912 17 25.7886V37.4457C17 37.543 17.0773 37.621 17.174 37.621H24.4337C24.4337 41.1755 21.8623 42.1883 18.479 42.4123C18.392 42.4221 18.3243 42.4902 18.3243 42.5779V47.0674C18.3243 47.1648 18.4017 47.2427 18.4983 47.2329C22.3457 47.0479 25.2263 46.1325 27.15 44.6133C29.238 42.9577 30.2723 40.5912 30.2723 37.6794V25.7886C30.2723 25.6912 30.195 25.6133 30.0983 25.6133H17.174Z" fill="#00A162" style="fill:#00A162;fill:color(display-p3 0.0000 0.6314 0.3843);fill-opacity:1;"/>
<path d="M32.9015 37.6302C32.8049 37.6302 32.7275 37.5523 32.7275 37.4549V25.7881C32.7275 25.6907 32.8049 25.6128 32.9015 25.6128H40.1612C40.1612 22.0582 37.5899 21.0454 34.2065 20.8214C34.1195 20.8117 34.0519 20.7435 34.0519 20.6559V16.1664C34.0519 16.069 34.1292 15.9911 34.2259 16.0008C38.0732 16.1859 40.9539 17.1013 42.8775 18.6205C44.9655 20.2761 45.9999 22.6425 45.9999 25.5544V37.4549C45.9999 37.5523 45.9225 37.6302 45.8259 37.6302H32.9015Z" fill="#00A162" style="fill:#00A162;fill:color(display-p3 0.0000 0.6314 0.3843);fill-opacity:1;"/>
<path d="M40.9824 40.9871V40.5664H42.8684V40.9871H42.1792V42.7683H41.7055V40.9871H40.9824ZM43.258 42.7683V40.5664H43.78L44.3513 42.2989L44.9216 40.5664H45.4368V42.7683H45.0337V41.4925L44.5746 42.7683H44.1357L43.6765 41.4848V42.7683H43.258Z" fill="#00A162" style="fill:#00A162;fill:color(display-p3 0.0000 0.6314 0.3843);fill-opacity:1;"/>
</g>
<defs>
<clipPath id="clip0_698_1037">
<rect width="29" height="32" fill="white" style="fill:white;fill-opacity:1;" transform="translate(17 16)"/>
</clipPath>
</defs>
</svg>
