<svg width="64" height="64" viewBox="0 0 64 64" fill="none" xmlns="http://www.w3.org/2000/svg">
<path d="M44.75 17H19.25C18.6533 17 18.081 17.2371 17.659 17.659C17.2371 18.081 17 18.6533 17 19.25V44.75C17 45.3467 17.2371 45.919 17.659 46.341C18.081 46.7629 18.6533 47 19.25 47H44.75C45.3467 47 45.919 46.7629 46.341 46.341C46.7629 45.919 47 45.3467 47 44.75V19.25C47 18.6533 46.7629 18.081 46.341 17.659C45.919 17.2371 45.3467 17 44.75 17ZM26 42.5H21.5V29H26V42.5ZM23.75 26.375C23.2343 26.3603 22.7343 26.1939 22.3126 25.8966C21.8909 25.5994 21.5662 25.1844 21.3789 24.7037C21.1917 24.2229 21.1503 23.6976 21.2599 23.1935C21.3695 22.6893 21.6252 22.2286 21.9952 21.869C22.3651 21.5093 22.8328 21.2666 23.3398 21.1713C23.8469 21.0759 24.3708 21.1321 24.8461 21.3328C25.3214 21.5335 25.727 21.8698 26.0123 22.2997C26.2975 22.7296 26.4498 23.2341 26.45 23.75C26.4382 24.4555 26.1475 25.1277 25.6416 25.6195C25.1356 26.1114 24.4556 26.383 23.75 26.375ZM42.5 42.5H38V35.39C38 33.26 37.1 32.495 35.93 32.495C35.587 32.5178 35.2518 32.6082 34.9438 32.761C34.6358 32.9137 34.361 33.1258 34.1352 33.385C33.9094 33.6443 33.7371 33.9456 33.6281 34.2716C33.5191 34.5977 33.4755 34.9421 33.5 35.285C33.4926 35.3548 33.4926 35.4252 33.5 35.495V42.5H29V29H33.35V30.95C33.7888 30.2825 34.3916 29.7389 35.1008 29.3712C35.8099 29.0034 36.6016 28.824 37.4 28.85C39.725 28.85 42.44 30.14 42.44 34.34L42.5 42.5Z" fill="#0A66C2" style="fill:#0A66C2;fill:color(display-p3 0.0392 0.4000 0.7608);fill-opacity:1;"/>
</svg>
