<svg width="64" height="64" viewBox="0 0 64 64" fill="none" xmlns="http://www.w3.org/2000/svg">
<path d="M41.2652 37.0997C40.2167 37.0413 39.1975 36.732 38.2934 36.1979C37.3892 35.6638 36.6265 34.9204 36.0693 34.0303C36.7414 28.674 38.6973 27.0089 41.2852 27.0089C43.8731 27.0089 45.8391 29.015 45.8391 32.0242C45.8391 35.0334 43.833 37.0395 41.2852 37.0395M41.2852 23.6587C39.4589 23.5847 37.6647 24.155 36.2162 25.2697C34.7677 26.3845 33.7571 27.9729 33.3611 29.7573C32.5025 27.9584 31.8529 26.067 31.4252 24.1201H25.0357V32.0443C25.0357 34.923 23.7318 37.0595 21.174 37.0595C18.6162 37.0595 17.1618 34.9331 17.1618 32.0443V24.1201H13.4906V32.0443C13.4073 34.2401 14.1641 36.3852 15.607 38.0425C16.3113 38.8094 17.1716 39.4165 18.1301 39.8231C19.0887 40.2297 20.1231 40.4263 21.164 40.3997C25.5874 40.3997 28.6869 36.9994 28.6869 32.1345V26.7782C29.4381 29.6605 30.68 32.3919 32.358 34.8528L30.3921 46.067H34.1234L35.4174 38.1228C35.8457 38.4916 36.3018 38.8269 36.7815 39.1258C38.028 39.9131 39.4608 40.3561 40.9342 40.4097H41.2752C42.3712 40.4211 43.4582 40.2107 44.4707 39.791C45.4832 39.3713 46.4003 38.7511 47.1669 37.9676C47.9334 37.1842 48.5335 36.2538 48.9311 35.2324C49.3286 34.211 49.5154 33.1197 49.4802 32.0242C49.5058 30.9328 49.3117 29.8473 48.9094 28.8323C48.5071 27.8174 47.9049 26.8937 47.1386 26.1161C46.3722 25.3385 45.4574 24.7229 44.4484 24.306C43.4394 23.889 42.3569 23.6791 41.2652 23.6888" fill="#14A800" style="fill:#14A800;fill:color(display-p3 0.0784 0.6588 0.0000);fill-opacity:1;"/>
</svg>
