<svg width="64" height="64" viewBox="0 0 64 64" fill="none" xmlns="http://www.w3.org/2000/svg">
<path fill-rule="evenodd" clip-rule="evenodd" d="M15.9949 31.8074C15.7183 33.6147 15.4481 35.4231 15.1627 37.2289C14.9869 38.341 14.8049 39.453 14.5811 40.5558C14.5448 40.7348 14.2942 40.967 14.1116 40.9995C13.6364 41.0845 13.1442 41.0717 12.6587 41.0988C12.3647 41.1152 12.1971 40.989 12.1318 40.6868C11.8436 39.3543 11.5291 38.0275 11.2515 36.6927C10.6905 33.9943 10.1462 31.2923 9.59738 28.5913C9.39955 27.6176 9.20915 26.6424 9.01393 25.6683C8.96001 25.3995 9.06243 25.1833 9.32439 25.1685C10.0698 25.1273 10.8188 25.101 11.5644 25.1285C11.8943 25.1408 11.9552 25.4796 11.9939 25.7616C12.2294 27.4681 12.4415 29.178 12.7006 30.8807C12.8802 32.0587 13.1235 33.2267 13.4061 34.4013C13.5098 33.7085 13.613 33.0162 13.7168 32.3234C13.9405 30.8289 14.1786 29.3362 14.3814 27.8386C14.4668 27.2092 14.4762 26.5692 14.5225 25.9341C14.5572 25.4604 14.7005 25.2632 15.1563 25.2296C15.6908 25.1904 16.2308 25.208 16.7675 25.2232C17.1239 25.2333 17.2606 25.5047 17.3143 25.8071C17.5225 26.9808 17.7376 28.154 17.9132 29.333C18.1533 30.944 18.3589 32.5603 18.5816 34.1739C18.5936 34.2601 18.6267 34.3432 18.7143 34.4318C18.8143 33.9167 18.9408 33.4051 19.0095 32.8861C19.2549 31.0332 19.4815 29.178 19.7128 27.3235C19.7718 26.8498 19.8074 26.3726 19.878 25.9007C19.9576 25.3662 20.1951 25.1671 20.7248 25.1653C21.2371 25.1635 21.7498 25.1766 22.2623 25.1781C22.7828 25.1793 22.9177 25.3437 22.8141 25.8492C22.6229 26.7832 22.4224 27.7154 22.2497 28.6529C21.6466 31.9244 21.0519 35.1972 20.458 38.4702C20.3352 39.1472 20.2277 39.8268 20.1143 40.5052C20.0636 40.8096 19.8854 40.9761 19.5828 40.9941C19.1108 41.0224 18.6385 41.0533 18.1661 41.0616C17.6474 41.0707 17.4666 40.8943 17.3909 40.3652C17.1975 39.0151 17.005 37.665 16.8062 36.3161C16.5992 34.9128 16.3853 33.5107 16.1729 32.1084C16.1574 32.0073 16.1272 31.9086 16.1037 31.8087C16.0674 31.8083 16.0314 31.8079 15.9949 31.8074ZM30.6748 31.9208C30.5026 32.9498 30.3338 33.9793 30.157 35.0072C29.9793 36.0395 29.7848 37.0689 29.6143 38.1022C29.4914 38.8472 29.3908 39.5959 29.29 40.3443C29.2309 40.7846 29.0621 40.9497 28.6222 40.9434C28.1489 40.9365 27.6725 40.9499 27.2049 40.8941C27.0346 40.8738 26.779 40.7072 26.7429 40.5615C26.5323 39.7191 26.3759 38.8629 26.201 38.0114C26.041 37.2333 25.8749 36.4562 25.7215 35.6767C25.4301 34.1947 25.1595 32.7085 24.8547 31.2291C24.5981 29.984 24.3009 28.7473 24.0299 27.505C23.9085 26.9488 23.7922 26.3905 23.701 25.8287C23.6313 25.398 23.7728 25.203 24.1923 25.2081C24.8348 25.2164 25.4814 25.2494 26.1152 25.3452C26.2701 25.3687 26.4643 25.6618 26.5014 25.8576C26.7008 26.9122 26.8431 27.9775 27.0305 29.0345C27.3059 30.5877 27.6036 32.1369 27.8906 33.688C27.9195 33.8438 27.9415 34.0007 28.0403 34.173C28.0632 34.0476 28.088 33.9226 28.1079 33.7966C28.5284 31.1534 28.9521 28.5109 29.3635 25.8661C29.4233 25.4828 29.4848 25.2168 29.9893 25.2888C30.4645 25.3568 30.9564 25.3064 31.4408 25.3076C31.6769 25.3082 31.7801 25.4174 31.818 25.664C32.2012 28.1537 32.5885 30.6429 32.9955 33.1288C33.0779 33.6322 33.2495 34.1211 33.4633 34.6101C33.5403 34.1983 33.6351 33.7889 33.691 33.3743C34.0335 30.8387 34.3661 28.3019 34.7042 25.7659C34.7767 25.2233 34.9204 25.111 35.4502 25.1312C35.9492 25.1501 36.4491 25.1501 36.9482 25.1699C37.3833 25.1871 37.5076 25.3018 37.4406 25.7277C37.2226 27.114 36.9574 28.4929 36.7472 29.8802C36.3816 32.2938 35.8765 34.6767 35.3169 37.0515C35.0718 38.0923 34.9788 39.1696 34.8146 40.23C34.7234 40.8202 34.5336 40.9748 33.9526 40.974C33.6006 40.9736 33.2483 40.993 32.8967 41.0144C32.392 41.045 32.1146 40.8235 32.0485 40.3484C31.7711 38.353 31.4947 36.3575 31.2041 34.3642C31.084 33.5402 30.9293 32.7214 30.7902 31.9002C30.7517 31.9071 30.7132 31.914 30.6748 31.9208Z" fill="black" style="fill:black;fill-opacity:1;"/>
<path fill-rule="evenodd" clip-rule="evenodd" d="M41.8114 32.1509C42.3103 32.1509 42.7733 32.2093 43.2151 32.1386C44.0954 31.998 44.8597 31.6398 45.0411 30.6519C45.11 30.2765 45.1036 29.8764 45.0635 29.4947C44.9747 28.6482 44.3011 27.6046 43.1448 27.6358C42.85 27.6438 42.5551 27.6677 42.2604 27.6652C42.012 27.6634 41.9485 27.7805 41.94 28.0092C41.9067 28.9173 41.8486 29.8244 41.8145 30.7323C41.7972 31.195 41.8114 31.659 41.8114 32.1509ZM41.7631 34.4125C41.7631 35.7178 41.7547 36.9727 41.7662 38.2274C41.773 38.9763 41.8169 39.7248 41.8336 40.4739C41.843 40.8922 41.7368 40.9728 41.3075 40.9801C40.8098 40.9887 40.3127 41.0326 39.815 41.0387C39.17 41.0469 39.0089 40.8748 39.0179 40.2292C39.0243 39.7885 39.0407 39.348 39.0436 38.9075C39.0582 36.7519 39.0744 34.5962 39.0804 32.4403C39.0868 30.1514 39.0849 27.8622 39.079 25.573C39.0783 25.265 39.2249 25.114 39.5119 25.1172C40.9781 25.1338 42.4513 25.0785 43.9086 25.203C46.5285 25.4271 48.128 27.8326 47.8518 29.9628C47.6589 31.4489 47.1038 32.6883 45.9089 33.6144C45.6991 33.7771 45.6853 33.9089 45.7696 34.149C46.5013 36.2324 47.2183 38.3211 47.934 40.41C48.076 40.8248 47.9112 41.0659 47.4682 41.0793C46.8371 41.0985 46.2052 41.0928 45.5737 41.1002C45.2267 41.1044 45.0419 40.9342 44.9353 40.6072C44.3091 38.6861 43.6592 36.7727 43.0433 34.8483C42.9262 34.4821 42.7476 34.3521 42.3804 34.4082C42.2127 34.4337 42.0381 34.4125 41.7631 34.4125Z" fill="black" style="fill:black;fill-opacity:1;"/>
<path fill-rule="evenodd" clip-rule="evenodd" d="M50.5497 22.2517C50.8393 22.1232 51.1422 22.0208 51.4554 22.0069C51.7458 21.994 52.0464 21.9956 52.3363 22.0427C52.5866 22.0835 53.0036 22.2355 53.2236 22.3476C53.8315 22.6573 53.9414 22.8027 54.1477 23.1204C54.3751 23.4706 54.5362 23.8764 54.5771 23.9452C54.7338 24.3542 54.727 24.7143 54.7155 25.1121C54.7029 25.5515 54.5532 25.9689 54.3585 26.3625C54.0699 26.9459 53.6473 27.4296 53.0824 27.7454C52.5917 28.0198 52.0394 28.0895 51.4635 28.0287C50.8081 27.9596 50.2247 27.7462 49.7027 27.367C49.4548 27.187 49.3368 26.894 49.1721 26.6406C48.8911 26.2086 48.7373 25.7585 48.6848 25.2494C48.645 24.8619 48.6862 24.4944 48.7941 24.0845C49.0835 23.2377 49.6932 22.6319 50.5497 22.2517Z" fill="#F03E3E" style="fill:#F03E3E;fill:color(display-p3 0.9412 0.2431 0.2431);fill-opacity:1;"/>
</svg>
