<svg width="146" height="48" viewBox="0 0 146 48" fill="none" xmlns="http://www.w3.org/2000/svg">
<g clip-path="url(#clip0_1030_1042)">
<path d="M146 0H-62V48H146V0Z" fill="white" style="fill:white;fill-opacity:1;"/>
<path d="M118.611 37.0639C117.82 36.1194 117.222 35.0327 116.849 33.8636L116.747 33.5685L116.644 33.2076L116.581 32.9834L116.479 32.5703L116.428 32.3258C116.376 32.0889 116.331 31.8504 116.295 31.6108C116.287 31.5225 116.273 31.4347 116.255 31.3478L116.204 30.9212C116.214 30.827 116.214 30.7321 116.204 30.6379L116.173 30.2771L134.046 25.8425C133.941 24.8931 133.666 23.9697 133.234 23.1159C132.583 21.6443 131.506 20.3963 130.138 19.5294C128.647 18.5567 126.959 17.92 125.191 17.6645L124.891 17.6173C123.831 17.4966 122.761 17.4966 121.702 17.6173C118.865 17.941 116.216 19.1789 114.162 21.1397C112.091 23.0949 110.72 25.6637 110.256 28.4577V28.569C110.222 28.7545 110.198 28.9298 110.18 29.1339C110.159 29.3362 110.18 29.3632 110.14 29.4947C110.149 29.5959 110.149 29.697 110.14 29.7982C110.153 29.9728 110.153 30.148 110.14 30.3226V31.1707C110.181 32.6887 110.492 34.1876 111.06 35.5986C113.119 40.5121 117.823 43.7293 123.022 43.7765C125.184 43.8196 127.323 43.3275 129.244 42.345C131.172 41.3599 132.821 39.9173 134.046 38.1464L133.739 37.3522C132.475 39.836 123.755 42.9233 118.611 37.0639ZM126.742 26.151L116.115 28.7798C116.115 28.451 116.115 28.1222 116.16 27.8136V27.7141C116.155 27.6096 116.155 27.505 116.16 27.4005L116.211 26.9722C116.306 26.2893 116.457 25.6148 116.658 24.9555C117.018 23.7331 117.57 22.5797 118.292 21.5394C118.943 20.5882 119.789 19.7828 120.775 19.1754C121.705 18.6007 122.78 18.2995 123.876 18.307C125.399 18.307 126.515 18.7454 127.221 19.6222C127.479 19.9257 127.694 20.268 127.859 20.6339C128.569 22.492 128.516 25.5862 126.742 26.151ZM86.7163 37.332C85.4371 39.8427 76.733 42.9233 71.5869 37.0706C70.7443 36.0589 70.1132 34.8769 69.7362 33.6005C69.2923 32.1507 69.0771 30.6418 69.0983 29.1271C69.0885 27.7127 69.2909 26.3046 69.6987 24.9488C70.0586 23.7263 70.6113 22.573 71.3328 21.5326C71.9792 20.5833 72.8082 19.779 73.7719 19.1754C74.7013 18.601 75.7768 18.2998 76.8728 18.307C78.396 18.307 79.5115 18.7454 80.216 19.6222C80.9443 20.5681 81.3212 21.7518 81.2769 22.9591C81.2923 23.5864 81.2019 24.2102 81.0091 24.8055L86.4332 23.4903C84.4614 18.2362 77.9252 17.506 76.7193 17.506C66.3658 17.3357 60.6859 27.36 64.029 35.5261C66.0912 40.443 70.7955 43.6636 75.9978 43.7175C78.1609 43.7604 80.3006 43.2677 82.2218 42.2843C84.1487 41.2998 85.798 39.8577 87.0216 38.0874L86.7163 37.332Z" fill="black" style="fill:black;fill-opacity:1;"/>
<path fill-rule="evenodd" clip-rule="evenodd" d="M46.4704 37.0645C45.6798 36.12 45.0815 35.0333 44.7084 33.8642L44.6061 33.5691L44.5038 33.2082L44.4406 32.984L44.3383 32.5709L44.2871 32.3264C44.2354 32.0895 44.191 31.851 44.1541 31.6114C44.1461 31.5231 44.133 31.4353 44.1149 31.3484L44.0637 30.9218C44.074 30.8276 44.074 30.7327 44.0637 30.6385L44.033 30.2777L61.9055 25.8431C61.8005 24.8937 61.5255 23.9703 61.0935 23.1165C60.4425 21.6449 59.3655 20.3969 57.9975 19.53C56.5065 18.5573 54.8185 17.9206 53.0509 17.6651L52.7507 17.6179C51.691 17.4972 50.6208 17.4972 49.5611 17.6179C46.7249 17.9416 44.0755 19.1795 42.022 21.1403C39.9505 23.0955 38.5794 25.6643 38.116 28.4583V28.5696C38.0819 28.7551 38.058 28.9304 38.0392 29.1345C38.0313 29.212 38.0295 29.2638 38.028 29.3055C38.0256 29.3728 38.0242 29.4142 38 29.4953C38.0085 29.5965 38.0085 29.6976 38 29.7988C38.0127 29.9734 38.0127 30.1486 38 30.3232V31.1713C38.0408 32.6893 38.352 34.1882 38.9193 35.5992C40.9781 40.5127 45.6824 43.7299 50.8813 43.7771C53.0437 43.8202 55.1825 43.3281 57.1035 42.3456C59.0315 41.3605 60.6805 39.9179 61.9055 38.147L61.5985 37.3528C60.3345 39.8366 51.6147 42.9239 46.4704 37.0645ZM43.975 28.7804L54.6015 26.1516C56.3755 25.5868 56.4285 22.4926 55.7185 20.6345C55.5535 20.2686 55.3385 19.9263 55.0805 19.6228C54.3745 18.746 53.259 18.3076 51.7359 18.3076C50.6398 18.3001 49.5642 18.6013 48.6349 19.176C47.6488 19.7834 46.8028 20.5888 46.1514 21.54C45.4299 22.5803 44.8773 23.7337 44.5174 24.9561C44.3161 25.6154 44.166 26.2899 44.0705 26.9728L44.0193 27.4011C44.0143 27.5056 44.0143 27.6102 44.0193 27.7147V27.8142C43.975 28.1228 43.975 28.4516 43.975 28.7804Z" fill="black" style="fill:black;fill-opacity:1;"/>
<path d="M110.253 37.334C108.977 39.8447 100.271 42.9253 95.1268 37.0726C94.2874 36.0588 93.6642 34.8876 93.2949 33.6294C92.8502 32.1797 92.6345 30.6708 92.6552 29.156C92.6455 27.7416 92.8478 26.3335 93.2556 24.9777C93.6138 23.7552 94.1648 22.6002 94.8829 21.5615C95.5216 20.6096 96.3519 19.798 97.322 19.1773C98.2517 18.6023 99.328 18.3011 100.425 18.3089C101.943 18.3089 103.058 18.7473 103.768 19.6241C104.503 20.5684 104.887 21.7521 104.847 22.9611C104.864 23.5875 104.771 24.2122 104.573 24.8074L109.966 23.4922C108.006 18.2381 101.472 17.5147 100.278 17.5147C89.9244 17.3444 84.2445 27.3687 87.5876 35.5348C89.6345 40.4635 94.3404 43.6992 99.5496 43.7599C101.717 43.805 103.861 43.3122 105.786 42.3267C107.712 41.3414 109.362 39.8988 110.585 38.1281L110.254 37.3356L110.253 37.334ZM141.868 38.5042V5L134.209 6.91886H134.158V7.66077C134.426 7.66077 136.744 8.31838 136.744 9.96071V38.3861C136.744 41.9726 134.279 42.4919 132.613 42.6015V43.2001H145.999V42.6032C144.339 42.4919 141.926 41.9659 141.868 38.5042Z" fill="black" style="fill:black;fill-opacity:1;"/>
<path d="M1 43V42.4242L2.24752 41.9636C3.51485 41.4646 4.14851 40.4859 4.14851 39.0273V8.97273C4.14851 7.43737 3.51485 6.45859 2.24752 6.03636L1 5.57576V5H16.6832C20.8812 5 24.4851 5.76768 27.4951 7.30303C30.5446 8.8 32.8812 10.9687 34.505 13.8091C36.1683 16.6111 37 19.9889 37 23.9424C37 27.9727 36.1089 31.4081 34.3267 34.2485C32.5446 37.0889 30.0495 39.2576 26.8416 40.7545C23.6733 42.2515 19.9307 43 15.6139 43H1ZM10.0594 41.8485H16.6139C19.4653 41.8485 23.7624 41.3111 25.5049 40.2364C27.2475 39.1232 29.5149 37.2808 30.3069 34.7091C31.1386 32.099 31.5545 28.5293 31.5545 24C31.5545 19.4707 31.1386 15.9202 30.3069 13.3485C29.5149 10.7384 27.2673 8.89596 25.5644 7.82121C23.8614 6.70808 19.6238 6.15151 16.8515 6.15151H10.0594V41.8485Z" fill="black" style="fill:black;fill-opacity:1;"/>
</g>
<defs>
<clipPath id="clip0_1030_1042">
<rect width="146" height="48" fill="white" style="fill:white;fill-opacity:1;"/>
</clipPath>
</defs>
</svg>
