<svg width="162" height="48" viewBox="0 0 162 48" fill="none" xmlns="http://www.w3.org/2000/svg">
<g clip-path="url(#clip0_1031_1056)">
<path d="M170 0H0V48H170V0Z" fill="white" style="fill:white;fill-opacity:1;"/>
<path d="M0 23.0018V9.07743H3.19705L3.24989 13.5163L2.80072 12.5123C2.99448 11.8077 3.32916 11.1736 3.80475 10.6099C4.28035 10.0462 4.8264 9.60586 5.44291 9.2888C6.07704 8.95412 6.73758 8.78679 7.42455 8.78679C7.724 8.78679 8.00583 8.81321 8.27005 8.86605C8.55189 8.9189 8.78087 8.98055 8.95702 9.05101L8.0851 12.618C7.89134 12.5123 7.65354 12.4242 7.37171 12.3537C7.08987 12.2833 6.80804 12.2481 6.52621 12.2481C6.08584 12.2481 5.66309 12.3361 5.25796 12.5123C4.87044 12.6708 4.52695 12.8998 4.2275 13.1992C3.92805 13.4987 3.69026 13.851 3.51411 14.2561C3.35558 14.6436 3.27631 15.084 3.27631 15.5772V23.0018H0Z" fill="black" style="fill:black;fill-opacity:1;"/>
<path d="M15.2041 23.266C13.7421 23.266 12.4475 22.9577 11.3201 22.3412C10.2104 21.7247 9.33849 20.888 8.70436 19.8311C8.08785 18.7566 7.77959 17.5324 7.77959 16.1585C7.77959 15.0664 7.95574 14.0712 8.30803 13.1728C8.66032 12.2745 9.14473 11.4994 9.76124 10.8477C10.3954 10.1783 11.144 9.66752 12.0071 9.31522C12.8878 8.94532 13.8478 8.76036 14.8871 8.76036C15.803 8.76036 16.6574 8.93651 17.45 9.2888C18.2427 9.64109 18.9296 10.1255 19.5109 10.742C20.0922 11.3409 20.5326 12.0631 20.832 12.9086C21.1491 13.7365 21.2988 14.6436 21.2812 15.6301L21.2548 16.7662H9.97261L9.36491 14.5468H18.5333L18.1106 14.9959V14.4146C18.0577 13.8686 17.8816 13.393 17.5821 12.9879C17.2827 12.5651 16.8951 12.2392 16.4196 12.0103C15.9616 11.7637 15.4508 11.6404 14.8871 11.6404C14.024 11.6404 13.293 11.8077 12.6941 12.1424C12.1128 12.477 11.6724 12.9614 11.373 13.5956C11.0735 14.2121 10.9238 14.9871 10.9238 15.9207C10.9238 16.819 11.1088 17.6029 11.4787 18.2722C11.8662 18.9416 12.4034 19.4612 13.0904 19.8311C13.795 20.1834 14.6141 20.3596 15.5476 20.3596C16.1994 20.3596 16.7983 20.2539 17.3443 20.0425C17.8904 19.8311 18.4805 19.4524 19.1146 18.9064L20.7263 21.1522C20.2507 21.5926 19.7047 21.9713 19.0882 22.2884C18.4893 22.5878 17.8551 22.8256 17.1858 23.0018C16.5164 23.1779 15.8559 23.266 15.2041 23.266Z" fill="black" style="fill:black;fill-opacity:1;"/>
<path d="M22.2571 23.0018V9.07743H25.4542L25.507 11.8781L24.9786 12.0895C25.1371 11.6315 25.3749 11.2088 25.692 10.8213C26.009 10.4161 26.3878 10.0727 26.8281 9.79082C27.2685 9.49137 27.7353 9.26238 28.2285 9.10385C28.7217 8.9277 29.2237 8.83963 29.7345 8.83963C30.492 8.83963 31.1613 8.96293 31.7426 9.20954C32.3415 9.43853 32.8347 9.80843 33.2222 10.3193C33.6274 10.8301 33.9268 11.4818 34.1206 12.2745L33.6185 12.1688L33.8299 11.746C34.0237 11.3233 34.2967 10.9446 34.649 10.6099C35.0013 10.2576 35.3976 9.94935 35.838 9.68513C36.2784 9.4033 36.7363 9.19192 37.2119 9.05101C37.7051 8.91009 38.1895 8.83963 38.6651 8.83963C39.722 8.83963 40.6027 9.05101 41.3073 9.47376C42.0119 9.89651 42.5403 10.5394 42.8926 11.4026C43.2449 12.2657 43.4211 13.3314 43.4211 14.5996V23.0018H40.1448V14.811C40.1448 14.1064 40.0479 13.5251 39.8541 13.0671C39.678 12.6092 39.3961 12.2745 39.0086 12.0631C38.6387 11.8341 38.1719 11.7196 37.6083 11.7196C37.1679 11.7196 36.7451 11.7989 36.34 11.9574C35.9525 12.0983 35.6178 12.3097 35.336 12.5915C35.0541 12.8558 34.834 13.164 34.6754 13.5163C34.5169 13.8686 34.4376 14.2561 34.4376 14.6789V23.0018H31.1613V14.7846C31.1613 14.1152 31.0644 13.5603 30.8707 13.12C30.6769 12.662 30.3951 12.3185 30.0252 12.0895C29.6553 11.8429 29.2061 11.7196 28.6777 11.7196C28.2373 11.7196 27.8234 11.7989 27.4358 11.9574C27.0483 12.0983 26.7136 12.3009 26.4318 12.5651C26.15 12.8293 25.9298 13.1376 25.7712 13.4899C25.6127 13.8422 25.5335 14.2297 25.5335 14.6524V23.0018H22.2571Z" fill="black" style="fill:black;fill-opacity:1;"/>
<path d="M45.5493 23.0018V9.07743H48.7992V23.0018H45.5493ZM47.1346 6.11817C46.4828 6.11817 45.972 5.95964 45.6021 5.64258C45.2498 5.3079 45.0737 4.84112 45.0737 4.24222C45.0737 3.67855 45.2586 3.22057 45.6285 2.86828C45.9984 2.51599 46.5005 2.33984 47.1346 2.33984C47.8039 2.33984 48.3148 2.50718 48.6671 2.84186C49.037 3.15892 49.2219 3.62571 49.2219 4.24222C49.2219 4.78827 49.037 5.23745 48.6671 5.58974C48.2972 5.94203 47.7863 6.11817 47.1346 6.11817Z" fill="black" style="fill:black;fill-opacity:1;"/>
<path d="M51.0706 23.0018V9.07743H54.2412L54.2941 11.931L53.6864 12.2481C53.8625 11.6139 54.206 11.0415 54.7168 10.5306C55.2277 10.0022 55.8354 9.57944 56.54 9.26238C57.2445 8.94532 57.9667 8.78679 58.7065 8.78679C59.7634 8.78679 60.6442 8.99816 61.3487 9.42091C62.0709 9.84366 62.6082 10.4778 62.9605 11.3233C63.3304 12.1688 63.5153 13.2257 63.5153 14.4939V23.0018H60.2654V14.7317C60.2654 14.0271 60.1686 13.4458 59.9748 12.9879C59.781 12.5123 59.4816 12.1688 59.0765 11.9574C58.6713 11.7284 58.1781 11.6227 57.5968 11.6404C57.1212 11.6404 56.6809 11.7196 56.2757 11.8781C55.8882 12.0191 55.5447 12.2304 55.2453 12.5123C54.9634 12.7765 54.7345 13.0847 54.5583 13.437C54.3998 13.7893 54.3205 14.1769 54.3205 14.5996V23.0018H52.7088C52.3917 23.0018 52.0923 23.0018 51.8104 23.0018C51.5462 23.0018 51.2996 23.0018 51.0706 23.0018Z" fill="black" style="fill:black;fill-opacity:1;"/>
<path d="M71.5839 29.0788C70.5447 29.0788 69.5054 28.9203 68.4661 28.6032C67.4445 28.2861 66.6166 27.8722 65.9825 27.3614L67.145 24.957C67.5149 25.2212 67.9289 25.4502 68.3869 25.644C68.8449 25.8377 69.3292 25.9874 69.8401 26.0931C70.3685 26.1988 70.8881 26.2517 71.399 26.2517C72.3325 26.2517 73.1076 26.1019 73.7241 25.8025C74.3582 25.5207 74.8338 25.0803 75.1509 24.4814C75.4679 23.9001 75.6265 23.1691 75.6265 22.2884V19.7254L76.1021 19.9104C75.9964 20.4565 75.7057 20.9761 75.2301 21.4693C74.7545 21.9625 74.1556 22.3676 73.4334 22.6847C72.7113 22.9841 71.9714 23.1339 71.214 23.1339C69.8929 23.1339 68.7215 22.8256 67.6999 22.2091C66.6959 21.5926 65.8944 20.7559 65.2955 19.699C64.7142 18.6245 64.4236 17.3915 64.4236 16C64.4236 14.6084 64.7142 13.3754 65.2955 12.3009C65.8768 11.2088 66.6694 10.3545 67.6735 9.73797C68.6951 9.10385 69.8401 8.78679 71.1083 8.78679C71.6368 8.78679 72.1476 8.84844 72.6408 8.97174C73.134 9.09504 73.5832 9.27119 73.9883 9.50018C74.4111 9.72917 74.7898 9.98458 75.1245 10.2664C75.4591 10.5482 75.7322 10.8477 75.9435 11.1648C76.1549 11.4818 76.287 11.7901 76.3399 12.0895L75.6529 12.3009L75.7057 9.07743H78.9028V22.0506C78.9028 23.1779 78.7354 24.1731 78.4008 25.0362C78.0661 25.8994 77.5817 26.6304 76.9476 27.2293C76.3134 27.8458 75.5472 28.3038 74.6489 28.6032C73.7505 28.9203 72.7289 29.0788 71.5839 29.0788ZM71.716 20.3596C72.5087 20.3596 73.2045 20.1746 73.8034 19.8047C74.4199 19.4348 74.8955 18.924 75.2301 18.2722C75.5648 17.6205 75.7322 16.8719 75.7322 16.0264C75.7322 15.1633 75.556 14.4058 75.2037 13.7541C74.869 13.0847 74.4023 12.5651 73.8034 12.1952C73.2045 11.8253 72.5087 11.6404 71.716 11.6404C70.9234 11.6404 70.2276 11.8341 69.6287 12.2216C69.0298 12.5915 68.5542 13.1112 68.2019 13.7805C67.8672 14.4323 67.6999 15.1809 67.6999 16.0264C67.6999 16.8543 67.8672 17.6029 68.2019 18.2722C68.5542 18.924 69.0298 19.4348 69.6287 19.8047C70.2276 20.1746 70.9234 20.3596 71.716 20.3596Z" fill="black" style="fill:black;fill-opacity:1;"/>
<path d="M82.3178 23.0018V5.53689H85.5677V23.0018H82.3178ZM79.5699 12.0895V9.07743H88.6062V12.0895H79.5699Z" fill="black" style="fill:black;fill-opacity:1;"/>
<path d="M95.4703 23.266C94.0788 23.266 92.837 22.9577 91.7449 22.3412C90.6527 21.7071 89.7896 20.844 89.1555 19.7519C88.5214 18.6598 88.2043 17.4179 88.2043 16.0264C88.2043 14.6348 88.5214 13.393 89.1555 12.3009C89.7896 11.2088 90.6527 10.3545 91.7449 9.73797C92.837 9.10385 94.0788 8.78679 95.4703 8.78679C96.8443 8.78679 98.0773 9.10385 99.1694 9.73797C100.262 10.3545 101.116 11.2088 101.732 12.3009C102.366 13.393 102.684 14.6348 102.684 16.0264C102.684 17.4179 102.366 18.6598 101.732 19.7519C101.116 20.844 100.262 21.7071 99.1694 22.3412C98.0773 22.9577 96.8443 23.266 95.4703 23.266ZM95.4703 20.386C96.2278 20.386 96.8971 20.1922 97.4784 19.8047C98.0773 19.4172 98.5441 18.8976 98.8788 18.2458C99.2311 17.5941 99.3984 16.8543 99.3808 16.0264C99.3984 15.1809 99.2311 14.4323 98.8788 13.7805C98.5441 13.1288 98.0773 12.618 97.4784 12.2481C96.8971 11.8605 96.2278 11.6668 95.4703 11.6668C94.7129 11.6668 94.0259 11.8605 93.4094 12.2481C92.8105 12.618 92.3437 13.1376 92.0091 13.8069C91.6744 14.4587 91.507 15.1985 91.507 16.0264C91.507 16.8543 91.6744 17.5941 92.0091 18.2458C92.3437 18.8976 92.8105 19.4172 93.4094 19.8047C94.0259 20.1922 94.7129 20.386 95.4703 20.386Z" fill="black" style="fill:black;fill-opacity:1;"/>
<path d="M103.741 23.0018V9.07743H106.912L106.964 11.931L106.357 12.2481C106.533 11.6139 106.876 11.0415 107.387 10.5306C107.898 10.0022 108.506 9.57944 109.21 9.26238C109.915 8.94532 110.637 8.78679 111.377 8.78679C112.434 8.78679 113.315 8.99816 114.019 9.42091C114.741 9.84366 115.279 10.4778 115.631 11.3233C116.001 12.1688 116.186 13.2257 116.186 14.4939V23.0018H112.936V14.7317C112.936 14.0271 112.839 13.4458 112.645 12.9879C112.451 12.5123 112.152 12.1688 111.747 11.9574C111.342 11.7284 110.848 11.6227 110.267 11.6404C109.792 11.6404 109.351 11.7196 108.946 11.8781C108.559 12.0191 108.215 12.2304 107.916 12.5123C107.634 12.7765 107.405 13.0847 107.229 13.437C107.07 13.7893 106.991 14.1769 106.991 14.5996V23.0018H105.379C105.062 23.0018 104.763 23.0018 104.481 23.0018C104.217 23.0018 103.97 23.0018 103.741 23.0018Z" fill="black" style="fill:black;fill-opacity:1;"/>
<path d="M62.5095 43.4925C61.2764 43.4925 60.1667 43.29 59.1803 42.8848C58.2115 42.4621 57.4188 41.8632 56.8023 41.0882L58.9161 39.265C59.4445 39.8639 60.0346 40.2955 60.6863 40.5597C61.3381 40.8239 62.0251 40.956 62.7473 40.956C63.0467 40.956 63.3109 40.9208 63.5399 40.8504C63.7865 40.7799 63.9979 40.6742 64.174 40.5333C64.3502 40.3924 64.4823 40.2338 64.5704 40.0577C64.6761 39.8639 64.7289 39.6526 64.7289 39.4236C64.7289 39.0008 64.5704 38.6661 64.2533 38.4195C64.0772 38.2962 63.7953 38.1641 63.4078 38.0232C63.0379 37.8823 62.5535 37.7414 61.9546 37.6005C61.0034 37.3539 60.2108 37.072 59.5766 36.755C58.9425 36.4203 58.4493 36.0504 58.097 35.6452C57.7976 35.3106 57.5686 34.9319 57.41 34.5091C57.2691 34.0864 57.1987 33.6284 57.1987 33.1352C57.1987 32.5187 57.3308 31.9638 57.595 31.4706C57.8768 30.9598 58.2555 30.5194 58.7311 30.1495C59.2067 29.7796 59.7616 29.4977 60.3957 29.304C61.0298 29.1102 61.6904 29.0133 62.3773 29.0133C63.0819 29.0133 63.7601 29.1014 64.4118 29.2776C65.0812 29.4537 65.6977 29.7091 66.2614 30.0438C66.8426 30.3609 67.3359 30.7484 67.741 31.2064L65.9443 33.188C65.6096 32.8709 65.2397 32.5891 64.8346 32.3425C64.4471 32.0959 64.0507 31.9021 63.6456 31.7612C63.2405 31.6027 62.8618 31.5234 62.5095 31.5234C62.1748 31.5234 61.8753 31.5587 61.6111 31.6291C61.3469 31.682 61.1267 31.77 60.9506 31.8933C60.7744 32.0166 60.6335 32.1752 60.5278 32.3689C60.4397 32.5451 60.3957 32.7564 60.3957 33.0031C60.4133 33.2144 60.4662 33.417 60.5542 33.6108C60.6599 33.7869 60.8008 33.9366 60.977 34.0599C61.1708 34.1832 61.4614 34.3242 61.8489 34.4827C62.2364 34.6412 62.7385 34.7909 63.355 34.9319C64.2181 35.1608 64.9403 35.4163 65.5216 35.6981C66.1028 35.9799 66.5608 36.3058 66.8955 36.6757C67.2302 36.9928 67.468 37.3627 67.6089 37.7854C67.7498 38.2082 67.8203 38.675 67.8203 39.1858C67.8203 40.0137 67.5825 40.7535 67.1069 41.4052C66.6489 42.057 66.0148 42.5678 65.2045 42.9377C64.4118 43.3076 63.5135 43.4925 62.5095 43.4925Z" fill="black" style="fill:black;fill-opacity:1;"/>
<path d="M75.3334 43.4925C74.0299 43.4925 72.8585 43.1755 71.8193 42.5414C70.78 41.9072 69.9609 41.0441 69.362 39.952C68.7631 38.8599 68.4637 37.6269 68.4637 36.2529C68.4637 34.879 68.7631 33.646 69.362 32.5539C69.9609 31.4618 70.78 30.5987 71.8193 29.9645C72.8585 29.3304 74.0299 29.0133 75.3334 29.0133C76.584 29.0133 77.7201 29.2511 78.7418 29.7267C79.7634 30.2023 80.5561 30.8629 81.1198 31.7084L79.3231 33.875C79.0589 33.5051 78.7242 33.1704 78.319 32.8709C77.9139 32.5715 77.4823 32.3337 77.0244 32.1576C76.5664 31.9814 76.1084 31.8933 75.6504 31.8933C74.8754 31.8933 74.1796 32.0871 73.5631 32.4746C72.9642 32.8445 72.4886 33.3642 72.1363 34.0335C71.784 34.6852 71.6079 35.4251 71.6079 36.2529C71.6079 37.0808 71.784 37.8206 72.1363 38.4724C72.5062 39.1241 72.9994 39.6438 73.6159 40.0313C74.2325 40.4188 74.9194 40.6126 75.6768 40.6126C76.1348 40.6126 76.5752 40.5421 76.9979 40.4012C77.4383 40.2427 77.8523 40.0225 78.2398 39.7406C78.6273 39.4588 78.9884 39.1065 79.3231 38.6838L81.1198 40.8768C80.5209 41.6518 79.693 42.2859 78.6361 42.7792C77.5968 43.2547 76.4959 43.4925 75.3334 43.4925Z" fill="black" style="fill:black;fill-opacity:1;"/>
<path d="M82.284 43.2283L82.3178 23.0018H85.5677L85.5074 32.1576L84.8997 32.4746C85.0759 31.8405 85.4194 31.268 85.9302 30.7572C86.441 30.2288 87.0487 29.806 87.7533 29.4889C88.4579 29.1719 89.1801 29.0133 89.9199 29.0133C90.9768 29.0133 91.8575 29.2247 92.5621 29.6475C93.2843 30.0702 93.8215 30.7044 94.1738 31.5499C94.5437 32.3954 94.7287 33.4522 94.7287 34.7205V43.2283H91.4788V34.9583C91.4788 34.2537 91.3819 33.6724 91.1881 33.2144C90.9944 32.7388 90.6949 32.3954 90.2898 32.184C89.8847 31.955 89.3915 31.8493 88.8102 31.8669C88.3346 31.8669 87.8942 31.9462 87.4891 32.1047C87.1016 32.2456 86.7581 32.457 86.4586 32.7388C86.1768 33.0031 85.9478 33.3113 85.7717 33.6636C85.6131 34.0159 85.5339 34.4034 85.5339 34.8262V43.2283H83.9221C83.6051 43.2283 83.3056 43.2283 83.0238 43.2283C82.7596 43.2283 82.513 43.2283 82.284 43.2283Z" fill="black" style="fill:black;fill-opacity:1;"/>
<path d="M100.34 43.2283L95.6634 29.304L98.9925 29.2776L102.11 39.2122L101.529 39.1594L104.911 31.3913H106.866L110.328 39.1594L109.641 39.2386L112.785 29.304H116.114L111.411 43.2283H109.086L105.519 34.879L106.021 34.9319L102.639 43.2283H100.34Z" fill="black" style="fill:black;fill-opacity:1;"/>
<path d="M122.056 43.4925C120.911 43.4925 119.871 43.1755 118.938 42.5414C118.004 41.9072 117.256 41.0441 116.692 39.952C116.128 38.8599 115.846 37.6181 115.846 36.2265C115.846 34.835 116.128 33.5931 116.692 32.501C117.256 31.4089 118.022 30.5546 118.991 29.9381C119.959 29.3216 121.051 29.0133 122.267 29.0133C122.971 29.0133 123.614 29.119 124.196 29.3304C124.777 29.5242 125.288 29.806 125.728 30.1759C126.169 30.5458 126.53 30.9686 126.811 31.4442C127.111 31.9198 127.313 32.4306 127.419 32.9766L126.706 32.7917V29.304H129.982V43.2283H126.679V39.8992L127.446 39.7671C127.322 40.2427 127.093 40.7094 126.759 41.1674C126.442 41.6078 126.036 42.0041 125.543 42.3564C125.068 42.6911 124.53 42.9641 123.931 43.1755C123.35 43.3869 122.725 43.4925 122.056 43.4925ZM122.954 40.6126C123.711 40.6126 124.381 40.4276 124.962 40.0577C125.543 39.6878 125.992 39.177 126.309 38.5252C126.644 37.8559 126.811 37.0896 126.811 36.2265C126.811 35.381 126.644 34.6324 126.309 33.9807C125.992 33.3289 125.543 32.8181 124.962 32.4482C124.381 32.0783 123.711 31.8933 122.954 31.8933C122.196 31.8933 121.527 32.0783 120.946 32.4482C120.382 32.8181 119.942 33.3289 119.625 33.9807C119.308 34.6324 119.149 35.381 119.149 36.2265C119.149 37.0896 119.308 37.8559 119.625 38.5252C119.942 39.177 120.382 39.6878 120.946 40.0577C121.527 40.4276 122.196 40.6126 122.954 40.6126Z" fill="black" style="fill:black;fill-opacity:1;"/>
<path d="M132.429 43.2283V29.304H135.626L135.679 33.7429L135.23 32.7388C135.423 32.0343 135.758 31.4001 136.234 30.8365C136.709 30.2728 137.255 29.8324 137.872 29.5154C138.506 29.1807 139.166 29.0133 139.853 29.0133C140.153 29.0133 140.435 29.0398 140.699 29.0926C140.981 29.1455 141.21 29.2071 141.386 29.2776L140.514 32.8445C140.32 32.7388 140.082 32.6508 139.801 32.5803C139.519 32.5098 139.237 32.4746 138.955 32.4746C138.515 32.4746 138.092 32.5627 137.687 32.7388C137.299 32.8974 136.956 33.1264 136.656 33.4258C136.357 33.7253 136.119 34.0775 135.943 34.4827C135.784 34.8702 135.705 35.3106 135.705 35.8038V43.2283H132.429Z" fill="black" style="fill:black;fill-opacity:1;"/>
<path d="M144.251 43.2283V25.7635H147.501V43.2283H144.251ZM141.503 32.3161V29.304H150.539V32.3161H141.503Z" fill="black" style="fill:black;fill-opacity:1;"/>
<path d="M151.112 43.2283V40.9032L158.378 31.3385V32.0254H151.112V29.304H161.76V31.6291L154.705 41.0089L154.599 40.5069H161.945V43.2283H151.112Z" fill="black" style="fill:black;fill-opacity:1;"/>
</g>
<defs>
<clipPath id="clip0_1031_1056">
<rect width="162" height="48" fill="white" style="fill:white;fill-opacity:1;"/>
</clipPath>
</defs>
</svg>
