<svg width="16" height="16" viewBox="0 0 16 16" fill="none" xmlns="http://www.w3.org/2000/svg">
<g clip-path="url(#clip0_1113_1160)">
<path d="M12.52 8.43547C10.5987 8.43547 9.04 9.9928 9.04 11.9155C9.04 13.8381 10.5987 15.3955 12.52 15.3955C14.4413 15.3955 16 13.8355 16 11.9155C16 9.99547 14.4427 8.43547 12.52 8.43547ZM3.48 8.43547C1.56 8.43547 0 9.99347 0 11.9155C0 13.8375 1.55867 15.3955 3.48 15.3955C5.40133 15.3955 6.96 13.8368 6.96 11.9155C6.96 9.99414 5.40267 8.43547 3.48 8.43547ZM11.48 4.08547C11.48 6.00747 9.922 7.56547 8 7.56547C6.07867 7.56547 4.52 6.00747 4.52 4.08547C4.52 2.16547 6.07867 0.605469 8 0.605469C9.922 0.605469 11.48 2.16547 11.48 4.08547Z" fill="#F06A6A" style="fill:#F06A6A;fill:color(display-p3 0.9412 0.4157 0.4157);fill-opacity:1;"/>
</g>
<defs>
<clipPath id="clip0_1113_1160">
<rect width="16" height="16" fill="white" style="fill:white;fill-opacity:1;"/>
</clipPath>
</defs>
</svg>
