<svg width="16" height="16" viewBox="0 0 16 16" fill="none" xmlns="http://www.w3.org/2000/svg">
<path d="M8.43439 14.9685C5.74585 14.9685 3.38439 13.9324 1.60505 11.9721C1.51371 11.8716 1.45177 11.748 1.42602 11.6147C1.40027 11.4813 1.4117 11.3435 1.45905 11.2163C1.92625 9.95732 3.18805 7.02905 4.80605 7.01972H4.81439C5.62705 7.01972 6.23519 7.66338 6.72425 8.18052C6.87039 8.33545 7.09425 8.57218 7.24545 8.68792C7.62252 8.31545 8.36379 7.07738 8.94025 5.83598C9.11292 5.46485 9.55379 5.30365 9.92459 5.47585C10.2959 5.64812 10.4571 6.08852 10.2849 6.45998C8.53705 10.2269 7.60552 10.2269 7.29952 10.2269C6.61819 10.2269 6.12432 9.70398 5.64679 9.19872C5.43292 8.97272 4.98825 8.50205 4.81465 8.50205C4.43699 8.56538 3.60872 9.87078 3.01665 11.3043C4.47832 12.7524 6.29879 13.4861 8.43439 13.4861C11.3647 13.4861 13.5564 12.6885 14.5008 11.2892C14.1749 7.56585 12.1247 2.51358 8.43439 2.51358C5.31072 2.51358 2.95759 4.68958 1.44005 8.98072C1.30339 9.36672 0.878986 9.56925 0.494253 9.43245C0.108319 9.29598 -0.0937473 8.87258 0.0425194 8.48678C1.79185 3.53945 4.61519 1.03125 8.43439 1.03125C13.4228 1.03125 15.7213 7.40545 15.9983 11.4232C16.0083 11.5701 15.9745 11.7166 15.9012 11.8442C14.7407 13.8589 12.0891 14.9685 8.43439 14.9685Z" fill="white" style="fill:white;fill-opacity:1;"/>
</svg>
