<svg width="16" height="16" viewBox="0 0 16 16" fill="none" xmlns="http://www.w3.org/2000/svg">
<path d="M13.5447 3.01094C12.5249 2.54302 11.4313 2.19828 10.2879 2.00083C10.2671 1.99702 10.2463 2.00654 10.2356 2.02559C10.0949 2.27573 9.93916 2.60206 9.83006 2.85856C8.60027 2.67445 7.37679 2.67445 6.17221 2.85856C6.0631 2.59636 5.90166 2.27573 5.76038 2.02559C5.74966 2.00718 5.72886 1.99765 5.70803 2.00083C4.56527 2.19765 3.47171 2.54239 2.45129 3.01094C2.44246 3.01475 2.43488 3.02111 2.42986 3.02935C0.355595 6.12826 -0.212634 9.151 0.0661201 12.1363C0.0673814 12.1509 0.0755799 12.1648 0.086932 12.1737C1.45547 13.1787 2.78114 13.7889 4.08219 14.1933C4.10301 14.1997 4.12507 14.192 4.13832 14.1749C4.44608 13.7546 4.72043 13.3115 4.95565 12.8454C4.96953 12.8181 4.95628 12.7857 4.92791 12.775C4.49275 12.6099 4.0784 12.4086 3.67982 12.1801C3.64829 12.1617 3.64577 12.1166 3.67477 12.095C3.75865 12.0321 3.84255 11.9667 3.92264 11.9007C3.93713 11.8886 3.95732 11.8861 3.97436 11.8937C6.59286 13.0892 9.4277 13.0892 12.0153 11.8937C12.0323 11.8855 12.0525 11.888 12.0677 11.9001C12.1478 11.9661 12.2316 12.0321 12.3161 12.095C12.3451 12.1166 12.3433 12.1617 12.3117 12.1801C11.9132 12.4131 11.4988 12.6099 11.063 12.7743C11.0346 12.7851 11.022 12.8181 11.0359 12.8454C11.2762 13.3108 11.5505 13.754 11.8526 14.1743C11.8652 14.192 11.8879 14.1997 11.9087 14.1933C13.2161 13.7889 14.5417 13.1787 15.9103 12.1737C15.9223 12.1648 15.9298 12.1515 15.9311 12.1369C16.2647 8.6856 15.3723 5.68765 13.5655 3.02998C13.5611 3.02111 13.5535 3.01475 13.5447 3.01094ZM5.34668 10.3185C4.55833 10.3185 3.90876 9.59478 3.90876 8.70593C3.90876 7.81707 4.54574 7.09331 5.34668 7.09331C6.15392 7.09331 6.79721 7.82343 6.78459 8.70593C6.78459 9.59478 6.14761 10.3185 5.34668 10.3185ZM10.6632 10.3185C9.87484 10.3185 9.22526 9.59478 9.22526 8.70593C9.22526 7.81707 9.86222 7.09331 10.6632 7.09331C11.4704 7.09331 12.1137 7.82343 12.1011 8.70593C12.1011 9.59478 11.4704 10.3185 10.6632 10.3185Z" fill="#5865F2" style="fill:#5865F2;fill:color(display-p3 0.3451 0.3961 0.9490);fill-opacity:1;"/>
</svg>
