<svg width="16" height="16" viewBox="0 0 16 16" fill="none" xmlns="http://www.w3.org/2000/svg">
<path d="M1.09091 14.0028H3.63636V7.82102L0 5.09375V12.9119C0 13.5156 0.489091 14.0028 1.09091 14.0028Z" fill="#4285F4" style="fill:#4285F4;fill:color(display-p3 0.2588 0.5216 0.9569);fill-opacity:1;"/>
<path d="M12.3633 14.0028H14.9087C15.5124 14.0028 15.9996 13.5138 15.9996 12.9119V5.09375L12.3633 7.82102" fill="#34A853" style="fill:#34A853;fill:color(display-p3 0.2039 0.6588 0.3255);fill-opacity:1;"/>
<path d="M12.3633 3.0901V7.81737L15.9996 5.0901V3.63555C15.9996 2.28646 14.4596 1.51737 13.3815 2.32646" fill="#FBBC04" style="fill:#FBBC04;fill:color(display-p3 0.9843 0.7373 0.0157);fill-opacity:1;"/>
<path d="M3.63672 7.82102V3.09375L8.00036 6.36648L12.364 3.09375V7.82102L8.00036 11.0938" fill="#EA4335" style="fill:#EA4335;fill:color(display-p3 0.9176 0.2627 0.2078);fill-opacity:1;"/>
<path d="M0 3.63555V5.0901L3.63636 7.81737V3.0901L2.61818 2.32646C1.53818 1.51737 0 2.28646 0 3.63555Z" fill="#C5221F" style="fill:#C5221F;fill:color(display-p3 0.7725 0.1333 0.1216);fill-opacity:1;"/>
</svg>
