<svg width="16" height="16" viewBox="0 0 16 16" fill="none" xmlns="http://www.w3.org/2000/svg">
<g clip-path="url(#clip0_1113_1092)">
<path d="M1.20962 13.1048L1.91523 14.3236C2.06186 14.5802 2.27262 14.7818 2.52005 14.9284L5.04009 10.5664H0C0 10.8505 0.0733104 11.1346 0.219931 11.3911L1.20962 13.1048Z" fill="#0066DA" style="fill:#0066DA;fill:color(display-p3 0.0000 0.4000 0.8549);fill-opacity:1;"/>
<path d="M8 5.43228L5.47995 1.07031C5.23253 1.21693 5.02176 1.41854 4.87514 1.67512L0.219931 9.73927C0.076007 9.99032 0.000191627 10.2746 0 10.564H5.04009L8 5.43228Z" fill="#00AC47" style="fill:#00AC47;fill:color(display-p3 0.0000 0.6745 0.2784);fill-opacity:1;"/>
<path d="M13.4814 14.9284C13.7288 14.7818 13.9395 14.5802 14.0862 14.3236L14.3794 13.8196L15.7815 11.3911C15.9281 11.1346 16.0014 10.8505 16.0014 10.5664H10.9609L12.0335 12.6741L13.4814 14.9284Z" fill="#EA4335" style="fill:#EA4335;fill:color(display-p3 0.9176 0.2627 0.2078);fill-opacity:1;"/>
<path d="M8.00051 5.43346L10.5206 1.07149C10.2731 0.924873 9.98906 0.851562 9.69582 0.851562H6.30521C6.01197 0.851562 5.72789 0.934037 5.48047 1.07149L8.00051 5.43346Z" fill="#00832D" style="fill:#00832D;fill:color(display-p3 0.0000 0.5137 0.1765);fill-opacity:1;"/>
<path d="M10.9594 10.5664H5.03958L2.51953 14.9284C2.76695 15.075 3.05103 15.1483 3.34427 15.1483H12.6547C12.9479 15.1483 13.232 15.0658 13.4794 14.9284L10.9594 10.5664Z" fill="#2684FC" style="fill:#2684FC;fill:color(display-p3 0.1490 0.5176 0.9882);fill-opacity:1;"/>
<path d="M13.4525 5.7072L11.1249 1.67512C10.9782 1.41854 10.7675 1.21693 10.52 1.07031L8 5.43228L10.9599 10.564H15.9908C15.9908 10.2799 15.9175 9.99586 15.7709 9.73927L13.4525 5.7072Z" fill="#FFBA00" style="fill:#FFBA00;fill:color(display-p3 1.0000 0.7294 0.0000);fill-opacity:1;"/>
</g>
<defs>
<clipPath id="clip0_1113_1092">
<rect width="16" height="14.2955" fill="white" style="fill:white;fill-opacity:1;" transform="translate(0 0.851562)"/>
</clipPath>
</defs>
</svg>
