<svg width="16" height="16" viewBox="0 0 16 16" fill="none" xmlns="http://www.w3.org/2000/svg">
<path d="M12.2113 3.78823L8.42186 3.36719L3.79026 3.78823L3.36914 7.99879L3.79018 12.2093L8.00074 12.7357L12.2113 12.2093L12.6323 7.89359L12.2113 3.78823Z" fill="white" style="fill:white;fill-opacity:1;"/>
<path d="M5.51683 10.3219C5.20211 10.1092 4.98419 9.79875 4.86523 9.38819L5.59579 9.08715C5.66211 9.33979 5.77787 9.53554 5.94315 9.6745C6.10739 9.81346 6.30739 9.88187 6.54107 9.88187C6.78003 9.88187 6.98531 9.80923 7.15683 9.66395C7.32835 9.51867 7.41475 9.33338 7.41475 9.10922C7.41475 8.87978 7.32419 8.69235 7.14315 8.54715C6.96211 8.40195 6.73475 8.32922 6.46315 8.32922H6.04107V7.60611H6.41995C6.65363 7.60611 6.85051 7.54298 7.01051 7.41666C7.17051 7.29034 7.25051 7.11771 7.25051 6.89771C7.25051 6.70195 7.17891 6.54611 7.03579 6.42931C6.89267 6.31251 6.71155 6.25354 6.49155 6.25354C6.27683 6.25354 6.10627 6.31043 5.97995 6.42515C5.85363 6.53987 5.76203 6.68091 5.70419 6.84723L4.98107 6.54619C5.07683 6.27459 5.25267 6.03459 5.51051 5.82723C5.76843 5.61987 6.09787 5.51562 6.49787 5.51562C6.79363 5.51562 7.05995 5.57251 7.29579 5.68723C7.53155 5.80195 7.71683 5.96091 7.85051 6.16299C7.98419 6.36611 8.05051 6.59355 8.05051 6.84611C8.05051 7.10403 7.98843 7.32187 7.86419 7.50083C7.73995 7.67979 7.58731 7.81658 7.40627 7.91242V7.95554C7.64523 8.05554 7.83995 8.20818 7.99363 8.41346C8.14627 8.61874 8.22307 8.86403 8.22307 9.15035C8.22307 9.43667 8.15043 9.69242 8.00515 9.91666C7.85987 10.1409 7.65883 10.3177 7.40411 10.4461C7.14835 10.5745 6.86099 10.6398 6.54203 10.6398C6.17259 10.6408 5.83155 10.5345 5.51683 10.3219Z" fill="#1A73E8" style="fill:#1A73E8;fill:color(display-p3 0.1020 0.4510 0.9098);fill-opacity:1;"/>
<path d="M9.99974 6.69913L9.20182 7.27913L8.80078 6.67073L10.2397 5.63281H10.7913V10.5286H9.99974V6.69913Z" fill="#1A73E8" style="fill:#1A73E8;fill:color(display-p3 0.1020 0.4510 0.9098);fill-opacity:1;"/>
<path d="M12.2112 15.9987L16.0007 12.2093L14.1059 11.3672L12.2112 12.2093L11.3691 14.104L12.2112 15.9987Z" fill="#EA4335" style="fill:#EA4335;fill:color(display-p3 0.9176 0.2627 0.2078);fill-opacity:1;"/>
<path d="M2.94727 14.1057L3.78935 16.0004H12.2104V12.2109H3.78935L2.94727 14.1057Z" fill="#34A853" style="fill:#34A853;fill:color(display-p3 0.2039 0.6588 0.3255);fill-opacity:1;"/>
<path d="M1.26312 0C0.56528 0 0 0.56528 0 1.26312V12.2105L1.89472 13.0526L3.78944 12.2105V3.78944H12.2105L13.0526 1.89472L12.2106 0H1.26312Z" fill="#4285F4" style="fill:#4285F4;fill:color(display-p3 0.2588 0.5216 0.9569);fill-opacity:1;"/>
<path d="M0 12.2109V14.7373C0 15.4352 0.56528 16.0004 1.26312 16.0004H3.78944V12.2109H0Z" fill="#188038" style="fill:#188038;fill:color(display-p3 0.0941 0.5020 0.2196);fill-opacity:1;"/>
<path d="M12.2109 3.7913V12.2123H16.0004V3.7913L14.1057 2.94922L12.2109 3.7913Z" fill="#FBBC04" style="fill:#FBBC04;fill:color(display-p3 0.9843 0.7373 0.0157);fill-opacity:1;"/>
<path d="M16.0004 3.78944V1.26312C16.0004 0.5652 15.4351 0 14.7373 0H12.2109V3.78944H16.0004Z" fill="#1967D2" style="fill:#1967D2;fill:color(display-p3 0.0980 0.4039 0.8235);fill-opacity:1;"/>
</svg>
