<svg width="16" height="16" viewBox="0 0 16 16" fill="none" xmlns="http://www.w3.org/2000/svg">
<g clip-path="url(#clip0_1113_1147)">
<path d="M12.1109 5.28665V3.38932C12.362 3.27191 12.5746 3.08569 12.7241 2.85228C12.8736 2.61887 12.9539 2.34784 12.9555 2.07065V2.02598C12.9545 1.6385 12.8001 1.26718 12.5262 0.993122C12.2523 0.719066 11.881 0.564548 11.4935 0.563316H11.4489C11.0615 0.564547 10.6904 0.718974 10.4164 0.992886C10.1425 1.2668 9.98811 1.63795 9.98688 2.02532V2.06998C9.9881 2.34556 10.0671 2.6152 10.2147 2.84788C10.3624 3.08057 10.5727 3.26685 10.8215 3.38532L10.8302 3.38932V5.29065C10.1048 5.40149 9.42175 5.70286 8.85088 6.16398L8.85888 6.15732L3.64021 2.09398C3.73957 1.72175 3.70674 1.32659 3.54733 0.975856C3.38791 0.625124 3.11178 0.340544 2.76601 0.170636C2.42024 0.000727514 2.02624 -0.0439887 1.65119 0.0441111C1.27613 0.132211 0.94325 0.347672 0.709291 0.653758C0.475332 0.959845 0.354783 1.33761 0.368198 1.72263C0.381612 2.10766 0.52816 2.47611 0.782855 2.76518C1.03755 3.05424 1.38462 3.24601 1.7649 3.30779C2.14517 3.36957 2.5351 3.29754 2.86821 3.10398L2.86021 3.10798L7.99154 7.10198C7.53792 7.78208 7.29703 8.58182 7.29954 9.39932C7.29954 10.2946 7.58288 11.1247 8.06421 11.804L8.05554 11.7907L6.49421 13.3527C6.36922 13.3123 6.23888 13.291 6.10754 13.2893H6.10621C5.83815 13.2893 5.57611 13.3688 5.35323 13.5177C5.13034 13.6667 4.95663 13.8783 4.85404 14.126C4.75146 14.3736 4.72462 14.6462 4.77692 14.9091C4.82921 15.172 4.9583 15.4135 5.14784 15.603C5.33739 15.7926 5.57889 15.9216 5.8418 15.9739C6.10471 16.0262 6.37722 15.9994 6.62487 15.8968C6.87253 15.7942 7.0842 15.6205 7.23313 15.3976C7.38205 15.1747 7.46154 14.9127 7.46154 14.6446C7.45974 14.5098 7.43725 14.376 7.39488 14.248L7.39821 14.2573L8.94288 12.7127C9.44634 13.0968 10.0308 13.3611 10.6518 13.4854C11.2727 13.6097 11.9139 13.5908 12.5264 13.43C13.139 13.2692 13.7068 12.9709 14.1867 12.5576C14.6666 12.1444 15.046 11.6272 15.2959 11.0453C15.5458 10.4634 15.6597 9.83216 15.629 9.19961C15.5982 8.56706 15.4236 7.94985 15.1185 7.39493C14.8133 6.84001 14.3856 6.36199 13.8679 5.99723C13.3502 5.63248 12.7561 5.3906 12.1309 5.28998L12.1069 5.28665H12.1109ZM11.4682 11.5387C11.0458 11.5375 10.6332 11.4111 10.2825 11.1756C9.9318 10.94 9.65879 10.6059 9.49792 10.2152C9.33705 9.82463 9.29554 9.39511 9.37863 8.98092C9.46172 8.56673 9.66569 8.18646 9.96477 7.88812C10.2639 7.58978 10.6446 7.38676 11.059 7.3047C11.4734 7.22264 11.9028 7.26522 12.293 7.42707C12.6833 7.58891 13.0168 7.86275 13.2514 8.21402C13.4861 8.56528 13.6114 8.97821 13.6115 9.40065V9.40198C13.6116 9.68277 13.5564 9.96083 13.449 10.2203C13.3416 10.4797 13.1841 10.7154 12.9855 10.914C12.787 11.1125 12.5513 11.27 12.2918 11.3774C12.0324 11.4848 11.7543 11.5401 11.4735 11.54L11.4682 11.5387Z" fill="#FF7A59" style="fill:#FF7A59;fill:color(display-p3 1.0000 0.4784 0.3490);fill-opacity:1;"/>
</g>
<defs>
<clipPath id="clip0_1113_1147">
<rect width="16" height="16" fill="white" style="fill:white;fill-opacity:1;"/>
</clipPath>
</defs>
</svg>
