<svg width="16" height="16" viewBox="0 0 16 16" fill="none" xmlns="http://www.w3.org/2000/svg">
<g clip-path="url(#clip0_1113_1085)">
<path d="M16.0053 7.16267H11.1296L15.352 4.72533L14.5147 3.27467L10.2917 5.712L12.7291 1.49067L11.2784 0.653333L8.84053 4.8736V0H7.1648V4.87413L4.72693 0.653333L3.27573 1.49067L5.71307 5.71093L1.4912 3.27467L0.653333 4.72533L4.87573 7.16267H0V8.83787H4.8752L0.653333 11.2752L1.49067 12.7259L5.7136 10.2885L3.27573 14.5099L4.7264 15.3472L7.1648 11.1264V16H8.84053V11.0219L11.3232 15.3205L12.6837 14.5355L10.2005 10.2357L14.5136 12.7253L15.3515 11.2747L11.1296 8.83733H16.0048L16.0053 7.16267ZM8.00267 10.2773C7.70353 10.2774 7.40732 10.2185 7.13094 10.104C6.85457 9.9896 6.60344 9.82185 6.39189 9.61035C6.18035 9.39886 6.01253 9.14777 5.89803 8.87142C5.78352 8.59507 5.72457 8.29887 5.72453 7.99973C5.7245 7.7006 5.78338 7.40439 5.89782 7.12801C6.01227 6.85163 6.18002 6.6005 6.39152 6.38896C6.60301 6.17742 6.8541 6.0096 7.13045 5.89509C7.4068 5.78059 7.703 5.72164 8.00213 5.7216C8.60626 5.72153 9.18567 5.96145 9.61291 6.38858C10.0401 6.81572 10.2802 7.39507 10.2803 7.9992C10.2803 8.60333 10.0404 9.18274 9.61328 9.60997C9.18615 10.0372 8.6068 10.2773 8.00267 10.2773Z" fill="#625DF5" style="fill:#625DF5;fill:color(display-p3 0.3843 0.3647 0.9608);fill-opacity:1;"/>
</g>
<defs>
<clipPath id="clip0_1113_1085">
<rect width="16" height="16" fill="white" style="fill:white;fill-opacity:1;"/>
</clipPath>
</defs>
</svg>
