<svg width="16" height="16" viewBox="0 0 16 16" fill="none" xmlns="http://www.w3.org/2000/svg">
<g clip-path="url(#clip0_695_918)">
<path d="M11.1605 6.08203H15.2933C15.6838 6.08203 16.0003 6.39855 16.0003 6.78901V10.5535C16.0003 11.9885 14.837 13.1518 13.402 13.1518H13.3897C11.9547 13.152 10.7912 11.9889 10.791 10.5538C10.791 10.5537 10.791 10.5536 10.791 10.5535V6.45152C10.791 6.24746 10.9564 6.08203 11.1605 6.08203Z" fill="#5059C9" style="fill:#5059C9;fill:color(display-p3 0.3137 0.3490 0.7882);fill-opacity:1;"/>
<path d="M13.9537 5.33712C14.8785 5.33712 15.6281 4.58746 15.6281 3.6627C15.6281 2.73794 14.8785 1.98828 13.9537 1.98828C13.029 1.98828 12.2793 2.73794 12.2793 3.6627C12.2793 4.58746 13.029 5.33712 13.9537 5.33712Z" fill="#5059C9" style="fill:#5059C9;fill:color(display-p3 0.3137 0.3490 0.7882);fill-opacity:1;"/>
<path d="M8.74478 5.33721C10.0805 5.33721 11.1634 4.25437 11.1634 2.91861C11.1634 1.58285 10.0805 0.5 8.74478 0.5C7.40902 0.5 6.32617 1.58285 6.32617 2.91861C6.32617 4.25437 7.40902 5.33721 8.74478 5.33721Z" fill="#7B83EB" style="fill:#7B83EB;fill:color(display-p3 0.4824 0.5137 0.9216);fill-opacity:1;"/>
<path d="M11.97 6.08203H5.14805C4.76224 6.09158 4.45705 6.41175 4.466 6.79757V11.0912C4.41213 13.4064 6.24384 15.3277 8.55903 15.3844C10.8742 15.3277 12.7059 13.4064 12.6521 11.0912V6.79757C12.661 6.41175 12.3558 6.09158 11.97 6.08203Z" fill="#7B83EB" style="fill:#7B83EB;fill:color(display-p3 0.4824 0.5137 0.9216);fill-opacity:1;"/>
<path opacity="0.1" d="M8.93016 6.08203V12.0988C8.92831 12.3747 8.76111 12.6226 8.50597 12.7276C8.42474 12.762 8.33743 12.7797 8.24923 12.7797H4.79248C4.74411 12.6569 4.69946 12.5341 4.66225 12.4076C4.532 11.9807 4.46554 11.5368 4.46504 11.0904V6.79645C4.45609 6.41125 4.76078 6.09158 5.14597 6.08203H8.93016Z" fill="black" style="fill:black;fill-opacity:1;"/>
<path opacity="0.2" d="M8.55807 6.08203V12.4709C8.55805 12.5591 8.54034 12.6464 8.50597 12.7276C8.40092 12.9827 8.15305 13.15 7.87714 13.1518H4.96737C4.90411 13.029 4.84458 12.9062 4.79248 12.7797C4.74039 12.6532 4.69946 12.5341 4.66225 12.4076C4.532 11.9807 4.46554 11.5368 4.46504 11.0904V6.79645C4.45609 6.41125 4.76078 6.09158 5.14597 6.08203H8.55807Z" fill="black" style="fill:black;fill-opacity:1;"/>
<path opacity="0.2" d="M8.55806 6.08203V11.7267C8.55523 12.1016 8.25202 12.4048 7.87713 12.4076H4.66225C4.532 11.9807 4.46554 11.5368 4.46504 11.0904V6.79645C4.45609 6.41125 4.76078 6.09158 5.14597 6.08203H8.55806Z" fill="black" style="fill:black;fill-opacity:1;"/>
<path opacity="0.2" d="M8.18596 6.08203V11.7267C8.18313 12.1016 7.87992 12.4048 7.50503 12.4076H4.66225C4.532 11.9807 4.46554 11.5368 4.46504 11.0904V6.79645C4.45609 6.41125 4.76078 6.09158 5.14597 6.08203H8.18596Z" fill="black" style="fill:black;fill-opacity:1;"/>
<path opacity="0.1" d="M8.93026 4.15749V5.32958C8.867 5.3333 8.80747 5.33702 8.74421 5.33702C8.68095 5.33702 8.62142 5.3333 8.55816 5.32958C8.43256 5.32124 8.308 5.30132 8.18607 5.27005C7.43258 5.09161 6.81007 4.56317 6.51165 3.84865C6.4603 3.72866 6.42044 3.60407 6.39258 3.47656H8.24932C8.6248 3.47798 8.92883 3.78201 8.93026 4.15749Z" fill="black" style="fill:black;fill-opacity:1;"/>
<path opacity="0.2" d="M8.55823 4.53249V5.33249C8.43263 5.32415 8.30807 5.30423 8.18614 5.27296C7.43265 5.09452 6.81014 4.56608 6.51172 3.85156H7.8773C8.25277 3.85298 8.5568 4.15701 8.55823 4.53249Z" fill="black" style="fill:black;fill-opacity:1;"/>
<path opacity="0.2" d="M8.55823 4.53249V5.33249C8.43263 5.32415 8.30807 5.30423 8.18614 5.27296C7.43265 5.09452 6.81014 4.56608 6.51172 3.85156H7.8773C8.25277 3.85298 8.5568 4.15701 8.55823 4.53249Z" fill="black" style="fill:black;fill-opacity:1;"/>
<path opacity="0.2" d="M8.18614 4.53249V5.27296C7.43265 5.09452 6.81014 4.56608 6.51172 3.85156H7.50521C7.88069 3.85299 8.18471 4.15702 8.18614 4.53249Z" fill="black" style="fill:black;fill-opacity:1;"/>
<path d="M0.682043 3.85156H7.50399C7.88068 3.85156 8.18604 4.15693 8.18604 4.53361V11.3556C8.18604 11.7322 7.88067 12.0376 7.50399 12.0376H0.682043C0.305358 12.0376 0 11.7322 0 11.3556V4.53361C0 4.15693 0.305365 3.85156 0.682043 3.85156Z" fill="url(#paint0_linear_695_918)" style=""/>
<path d="M5.88878 6.44693H4.52506V10.1604H3.65622V6.44693H2.29883V5.72656H5.88878V6.44693Z" fill="white" style="fill:white;fill-opacity:1;"/>
</g>
<defs>
<linearGradient id="paint0_linear_695_918" x1="1.42208" y1="3.31862" x2="6.76397" y2="12.5705" gradientUnits="userSpaceOnUse">
<stop stop-color="#5A62C3" style="stop-color:#5A62C3;stop-color:color(display-p3 0.3529 0.3843 0.7647);stop-opacity:1;"/>
<stop offset="0.5" stop-color="#4D55BD" style="stop-color:#4D55BD;stop-color:color(display-p3 0.3020 0.3333 0.7412);stop-opacity:1;"/>
<stop offset="1" stop-color="#3940AB" style="stop-color:#3940AB;stop-color:color(display-p3 0.2235 0.2510 0.6706);stop-opacity:1;"/>
</linearGradient>
<clipPath id="clip0_695_918">
<rect width="16" height="16" fill="white" style="fill:white;fill-opacity:1;"/>
</clipPath>
</defs>
</svg>
