<svg width="16" height="16" viewBox="0 0 16 16" fill="none" xmlns="http://www.w3.org/2000/svg">
<path d="M8 16C12.4183 16 16 12.4183 16 8C16 3.58172 12.4183 0 8 0C3.58172 0 0 3.58172 0 8C0 12.4183 3.58172 16 8 16Z" fill="#4A8CFF" style="fill:#4A8CFF;fill:color(display-p3 0.2902 0.5490 1.0000);fill-opacity:1;"/>
<path d="M10.4334 6.96114L12.6943 5.30897C12.8917 5.1481 13.0421 5.18549 13.0421 5.48288V10.5211C13.0421 10.8551 12.8543 10.8168 12.6943 10.6951L10.4334 9.04288V6.96114ZM2.78125 5.49505V9.25158C2.78332 9.6594 2.94726 10.0497 3.23702 10.3367C3.52678 10.6237 3.91864 10.7839 4.32647 10.782H9.80473C9.87884 10.7822 9.95002 10.7531 10.0027 10.7009C10.0553 10.6488 10.0851 10.5779 10.0856 10.5037V6.74723C10.0835 6.3394 9.91959 5.9491 9.62983 5.66211C9.34007 5.37512 8.9482 5.21494 8.54038 5.21679H3.06212C2.98801 5.21656 2.91683 5.24572 2.86418 5.29788C2.81153 5.35004 2.78171 5.42094 2.78125 5.49505Z" fill="white" style="fill:white;fill-opacity:1;"/>
</svg>
