<svg width="81" height="74" viewBox="0 0 81 74" fill="none" xmlns="http://www.w3.org/2000/svg">
<path d="M36.8628 19.0174L27.1538 35.9128L34.4278 40.1054L44.1368 23.21L36.8628 19.0174Z" fill="#0583FF"/>
<path d="M56.2811 19.0174L46.572 35.9128L53.846 40.1054L63.555 23.21L56.2811 19.0174Z" fill="#0583FF"/>
<path d="M64.115 21.1134C64.115 21.9447 63.8689 22.7573 63.4078 23.4485C62.9466 24.1397 62.2912 24.6785 61.5243 24.9966C60.7574 25.3147 59.9136 25.3979 59.0995 25.2358C58.2854 25.0736 57.5376 24.6733 56.9506 24.0855C56.3637 23.4976 55.964 22.7487 55.8021 21.9334C55.6401 21.1181 55.7233 20.273 56.0409 19.5049C56.3585 18.7369 56.8965 18.0805 57.5866 17.6186C58.2768 17.1568 59.0882 16.9103 59.9182 16.9103C60.4694 16.9103 61.0151 17.019 61.5243 17.2302C62.0335 17.4414 62.4961 17.751 62.8858 18.1413C63.2755 18.5316 63.5847 18.995 63.7956 19.5049C64.0065 20.0149 64.115 20.5614 64.115 21.1134Z" fill="#00EBA7"/>
<path d="M30.7946 42.2125C30.0562 42.2133 29.3307 42.0189 28.6914 41.6489C28.0521 41.279 27.5217 40.7466 27.1537 40.1055L17.4446 23.21C16.8894 22.244 16.7402 21.0966 17.0297 20.0204C17.3193 18.9442 18.0238 18.0272 18.9884 17.4712C19.953 16.9153 21.0986 16.7658 22.1732 17.0558C23.2478 17.3457 24.1634 18.0514 24.7185 19.0174L34.4276 35.9129C34.7944 36.5517 34.9872 37.2757 34.9865 38.0126C34.9858 38.7495 34.7918 39.4732 34.4238 40.1113C34.0558 40.7494 33.5268 41.2794 32.8899 41.6481C32.2529 42.0169 31.5303 42.2116 30.7946 42.2126V42.2125Z" fill="#00EBA7"/>
<path d="M50.2127 42.2125C49.4744 42.2133 48.7489 42.0189 48.1096 41.6489C47.4703 41.2789 46.9399 40.7465 46.5719 40.1055L36.8628 23.21C36.3077 22.244 36.1584 21.0966 36.448 20.0204C36.7375 18.9442 37.442 18.0272 38.4066 17.4712C38.8842 17.1959 39.4113 17.0176 39.9578 16.9463C40.5042 16.875 41.0593 16.9122 41.5914 17.0558C42.666 17.3457 43.5816 18.0513 44.1368 19.0174L53.8458 35.9129C54.2127 36.5516 54.4054 37.2757 54.4047 38.0126C54.404 38.7494 54.21 39.4732 53.842 40.1113C53.474 40.7494 52.945 41.2793 52.308 41.6481C51.671 42.0169 50.9485 42.2116 50.2127 42.2125V42.2125Z" fill="#00EBA7"/>
<path d="M24.8777 50.6184L23.5669 54.8612L22.2469 50.6184H21.0937L19.7829 54.8612L18.463 50.6184H16.8848L19.1645 57.0887H20.392L21.6747 53.0217L22.9578 57.0887H24.1762L26.4556 50.6184H24.8777Z" fill="#9EA4A9"/>
<path d="M33.369 57.0888L33.1198 56.303H30.8214L30.5725 57.0888H28.9758L31.2832 50.6185H32.6585L34.9933 57.0888H33.369ZM31.9752 52.467L31.1815 55.129H32.7504L31.9752 52.467Z" fill="#9EA4A9"/>
<path d="M43.6209 50.6176H41.8763L40.5011 53.1597L40.5 53.1618L40.4992 53.1602L39.124 50.6184H37.3794L39.7432 54.7895V57.0895H41.2568V54.7895L43.6209 50.6176Z" fill="#9EA4A9"/>
<path d="M53.7885 57.0887H52.3302V53.077L50.9366 57.0887H49.829L48.3894 53.077V57.0887H46.9312V50.6184H48.6566L50.3828 55.1199L52.0903 50.6184H53.7885V57.0887Z" fill="#9EA4A9"/>
<path d="M57.3807 53.8536C57.3761 53.1755 57.5726 52.5112 57.9454 51.945C58.3181 51.3788 58.8503 50.9362 59.4745 50.6733C60.0987 50.4103 60.7868 50.3389 61.4516 50.4681C62.1164 50.5972 62.7279 50.9211 63.2087 51.3987C63.6895 51.8763 64.0178 52.4861 64.1522 53.1508C64.2865 53.8155 64.2208 54.5052 63.9633 55.1324C63.7059 55.7597 63.2683 56.2963 62.706 56.6742C62.1437 57.0521 61.482 57.2543 60.8049 57.2552C60.3534 57.2705 59.9036 57.1932 59.4831 57.0281C59.0625 56.863 58.6802 56.6134 58.3595 56.2948C58.0388 55.9763 57.7865 55.5954 57.6182 55.1755C57.4499 54.7557 57.3691 54.3059 57.3807 53.8536V53.8536ZM62.697 53.8536C62.697 52.7907 61.9772 51.8017 60.8049 51.8017C59.6234 51.8017 58.9128 52.7907 58.9128 53.8536C58.9128 54.9166 59.6234 55.9056 60.8049 55.9056C61.9772 55.9056 62.697 54.9166 62.697 53.8536Z" fill="#9EA4A9"/>
</svg>
