<svg xmlns="http://www.w3.org/2000/svg" fill="none" viewBox="0 0 130 48"><path fill="#000" d="M51.48 14.503h-3.21v19.584h9.24v-2.881h-6.03V14.503ZM68.844 22.812c-.41-.652-.991-1.165-1.745-1.538-.754-.373-1.512-.56-2.275-.56-.987 0-1.89.182-2.708.546a6.336 6.336 0 0 0-2.108 1.496 7.096 7.096 0 0 0-1.856 4.812c0 .934.163 1.81.489 2.63a6.958 6.958 0 0 0 1.367 2.183 6.332 6.332 0 0 0 2.108 1.496c.819.364 1.721.546 2.708.546.763 0 1.522-.187 2.275-.56.754-.372 1.335-.885 1.745-1.538v1.762h3.043V21.05h-3.043v1.763Zm-.28 6.351a4.043 4.043 0 0 1-.78 1.315c-.336.374-.74.672-1.215.896-.475.224-1 .335-1.578.335a3.56 3.56 0 0 1-1.563-.335 3.817 3.817 0 0 1-1.2-.896 3.846 3.846 0 0 1-.768-1.315 4.766 4.766 0 0 1-.265-1.594c0-.56.088-1.091.265-1.595a3.85 3.85 0 0 1 .768-1.315 3.823 3.823 0 0 1 1.2-.895 3.56 3.56 0 0 1 1.563-.336c.577 0 1.103.112 1.578.335.474.224.88.523 1.214.896.335.373.596.811.782 1.315.186.503.279 1.035.279 1.595s-.093 1.09-.28 1.594ZM93.577 22.812c-.41-.652-.99-1.165-1.745-1.538-.753-.373-1.512-.56-2.275-.56-.986 0-1.889.182-2.707.546a6.336 6.336 0 0 0-2.108 1.496 7.096 7.096 0 0 0-1.856 4.812c0 .934.162 1.81.488 2.63a6.96 6.96 0 0 0 1.368 2.183 6.332 6.332 0 0 0 2.108 1.496c.818.364 1.72.546 2.707.546.763 0 1.522-.187 2.275-.56.754-.372 1.336-.885 1.745-1.538v1.762h3.043V21.05h-3.043v1.763Zm-.279 6.351a4.043 4.043 0 0 1-.781 1.315c-.335.374-.74.672-1.215.896-.474.224-1 .335-1.577.335a3.56 3.56 0 0 1-1.563-.335 3.817 3.817 0 0 1-1.2-.896 3.846 3.846 0 0 1-.768-1.315 4.766 4.766 0 0 1-.266-1.594c0-.56.088-1.091.266-1.595a3.85 3.85 0 0 1 .767-1.315 3.823 3.823 0 0 1 1.2-.895 3.56 3.56 0 0 1 1.564-.336c.577 0 1.103.112 1.577.335.475.224.88.523 1.215.896.335.373.595.811.781 1.315.186.503.28 1.035.28 1.595s-.094 1.09-.28 1.594ZM130 14.503h-3.043v19.584H130V14.503ZM74.288 34.087h3.042V24.05h5.22v-3h-8.262v13.037ZM108.819 21.05l-3.824 9.984-3.825-9.984h-3.081l4.994 13.037h3.824l4.994-13.037h-3.082ZM118.538 20.715c-3.726 0-6.676 3.068-6.676 6.854 0 4.184 2.855 6.854 7.066 6.854 2.356 0 3.861-.903 5.699-2.87l-2.055-1.594c-.002.002-1.552 2.042-3.867 2.042-2.691 0-3.824-2.174-3.824-3.3h10.095c.53-4.306-2.295-7.986-6.438-7.986Zm-3.649 5.72c.024-.25.374-3.298 3.625-3.298 3.25 0 3.645 3.047 3.667 3.299h-7.292ZM13.648 41.702.346 34.234C.15 34.111 0 34.044 0 33.796v-22.56c0-.183.115-.303.22-.359l6.748-3.784c.22-.124.404-.124.612 0l6.703 3.75c.265.146.277.337.277.506v13.97l5.595-3.134v-7.142c0-.247.115-.393.392-.55l6.68-3.74a.41.41 0 0 1 .45 0l6.807 3.819c.219.123.242.269.242.482v7.423c0 .236-.058.36-.3.505L28 26.576v7.12c0 .28-.07.393-.323.538l-13.348 7.468c-.254.135-.427.135-.68 0Zm-.207-1.381v-6.266L7.072 30.55c-.208-.123-.358-.213-.358-.516V15.402L1.108 12.27v21.145L13.44 40.32Zm13.451-6.906v-6.221l-12.332 6.86v6.267l12.332-6.906Zm-.588-7.146-5.584-3.152-12.298 6.906 5.56 3.077 12.322-6.831Zm-12.863-.333V12.258l-5.596 3.145V29.08l5.596-3.144Zm13.451-.629v-6.199l-5.606-3.144v6.221l5.606 3.122Zm6.715-3.122v-6.221L28 19.108v6.199l5.607-3.122Zm-6.16-4.031 5.583-3.133-5.584-3.133-5.595 3.133 5.595 3.133Zm-14.58-6.839L7.268 8.182l-5.584 3.133 5.584 3.144 5.599-3.144Z"/></svg>
