<svg xmlns="http://www.w3.org/2000/svg" fill="none" viewBox="0 0 158 48"><path fill="#000" d="M55.42 18.178v-2.491h10.956v2.491H62.3v13.875h-2.834V18.178H55.42Zm18.097 4.577a7.526 7.526 0 0 0-1.33-.116c-1.82 0-2.89 1.188-2.89 3.592v5.793h-2.69v-11.47h2.631v1.622h.058c.52-.985 1.677-2 3.21-2 .433 0 .722.03 1.011.059v2.52Zm10.264 9.269v-1.448h-.058c-.78.985-2.024 1.883-3.932 1.883-2.573 0-5.493-2.057-5.493-6.17 0-3.65 2.573-6.083 5.695-6.083 1.908 0 3.065 1.013 3.76 1.911h.057v-1.564h2.602v11.471h-2.631Zm-3.296-1.94c1.763 0 3.411-1.536 3.411-3.738 0-2.317-1.503-3.852-3.382-3.852-2.37 0-3.499 1.912-3.499 3.795 0 1.911 1.1 3.795 3.47 3.795Zm9.021-9.531h2.66v1.449h.057c.896-1.304 2.226-1.825 3.498-1.825 2.371 0 4.453 1.564 4.453 5.243v6.604h-2.69v-6.46c0-1.97-.924-3.012-2.457-3.012-1.677 0-2.833 1.188-2.833 3.418v6.083h-2.689l.001-11.5Zm18.792 2.955c-.116-.84-.752-1.39-1.533-1.39-.925 0-1.445.579-1.445 1.216 0 .695.347 1.188 2.341 1.854 2.458.782 3.325 2.057 3.325 3.679 0 2.114-1.59 3.592-4.221 3.592-2.746 0-4.105-1.507-4.308-3.65h2.487c.115.956.694 1.68 1.879 1.68 1.012 0 1.59-.637 1.59-1.42 0-.868-.491-1.419-2.399-2.056-2.14-.695-3.239-1.767-3.239-3.563 0-1.883 1.475-3.273 3.903-3.273 2.458 0 3.759 1.448 4.048 3.33l-2.428.001Zm5.03-8.227h2.978v2.723h-2.978v-2.723Zm.145 5.272h2.688v11.5h-2.688v-11.5Zm10.986 2.955c-.116-.84-.752-1.39-1.533-1.39-.925 0-1.445.579-1.445 1.216 0 .695.347 1.188 2.342 1.854 2.457.782 3.324 2.057 3.324 3.679 0 2.114-1.59 3.592-4.221 3.592-2.746 0-4.105-1.507-4.307-3.65h2.486c.116.956.694 1.68 1.879 1.68 1.012 0 1.59-.637 1.59-1.42 0-.868-.491-1.419-2.399-2.056-2.14-.695-3.238-1.767-3.238-3.563 0-1.883 1.474-3.273 3.903-3.273 2.457 0 3.758 1.448 4.047 3.33l-2.428.001Zm3.845-2.955h1.445v-3.678h2.689v3.678h2.862v2.26h-2.891v5.127c0 1.564.492 1.999 1.59 1.999.463 0 .983-.087 1.388-.203v2.172c-.607.174-1.359.261-2.024.261-2.862 0-3.614-1.738-3.614-4.084v-5.272h-1.445v-2.26Zm14.311-.376c3.585 0 6.129 2.636 6.129 6.112 0 3.389-2.573 6.17-6.129 6.17-3.498 0-6.129-2.694-6.129-6.17 0-3.563 2.66-6.112 6.129-6.112Zm0 9.877c2.024 0 3.411-1.622 3.411-3.765 0-2.028-1.301-3.737-3.411-3.737-2.053 0-3.412 1.593-3.412 3.737 0 2.201 1.562 3.765 3.412 3.765Zm14.052-7.415c-1.822 0-2.891 1.188-2.891 3.592v5.793h-2.689v-11.47h2.631v1.622h.058c.52-.985 1.676-2 3.209-2 .433 0 .722.03 1.012.059v2.52a7.525 7.525 0 0 0-1.33-.116ZM20.812 37.731a1.39 1.39 0 0 1-1.388-1.39V11.37a1.39 1.39 0 0 1 2.369-.982c.26.26.406.614.406.982v24.97c0 .753-.636 1.391-1.387 1.391ZM15.03 25.247H8.38a1.39 1.39 0 0 1-1.387-1.39c0-.783.607-1.391 1.388-1.391h6.65a1.39 1.39 0 1 1 0 2.78l-.001.001Zm18.243 0h-6.678a1.39 1.39 0 0 1-1.388-1.39c0-.783.607-1.391 1.388-1.391h6.65a1.39 1.39 0 0 1 1.387 1.39c0 .782-.607 1.391-1.359 1.391Z"/><path fill="#000" d="M20.816 44.712C9.338 44.712 0 35.356 0 23.856 0 12.356 9.338 3 20.816 3s20.816 9.356 20.816 20.856c0 11.5-9.338 20.856-20.816 20.856Zm0-38.931c-9.945 0-18.04 8.11-18.04 18.075s8.095 18.075 18.04 18.075c9.946 0 18.04-8.11 18.04-18.075S30.762 5.781 20.816 5.781Z"/></svg>
